<svg xmlns="http://www.w3.org/2000/svg"  viewBox="0 0 50 50" width="50px" height="50px"><path d="M 9 4 C 6.2504839 4 4 6.2504839 4 9 L 4 41 C 4 43.749516 6.2504839 46 9 46 L 41 46 C 43.749516 46 46 43.749516 46 41 L 46 9 C 46 6.2504839 43.749516 4 41 4 L 9 4 z M 9 6 L 41 6 C 42.668484 6 44 7.3315161 44 9 L 44 41 C 44 42.668484 42.668484 44 41 44 L 9 44 C 7.3315161 44 6 42.668484 6 41 L 6 9 C 6 7.3315161 7.3315161 6 9 6 z M 25.197266 11 C 21.175771 11.03063 17.921696 12.404232 15.810547 15.089844 C 13.89599 17.523831 12.96586 20.882337 12.931641 24.982422 L 12.931641 24.990234 L 12.931641 24.998047 C 12.965851 29.118158 13.895484 32.477165 15.810547 34.912109 C 17.922655 37.596431 21.176137 38.96935 25.179688 39 L 25.1875 39 L 25.195312 39 C 28.748351 38.97377 31.450694 38.006097 33.544922 35.914062 C 36.201473 33.259766 36.203796 29.877541 35.291016 27.744141 L 35.291016 27.742188 C 34.743292 26.471756 33.762233 25.400445 32.492188 24.634766 C 32.227773 24.475031 31.514635 24.28877 31.167969 24.123047 C 31.169969 23.697531 31.219702 23.580672 31.164062 23.148438 C 31.005927 21.919581 30.635949 20.561968 29.701172 19.458984 C 28.766412 18.356072 27.253584 17.610589 25.234375 17.597656 L 25.230469 17.597656 L 25.226562 17.597656 C 23.124423 17.597656 21.280446 18.519137 20.183594 20.189453 L 21.855469 21.287109 C 22.598268 20.155956 23.66195 19.598179 25.224609 19.597656 C 26.793251 19.608656 27.607889 20.081872 28.175781 20.751953 C 28.744254 21.422719 29.051777 22.395152 29.181641 23.404297 C 29.182641 23.412297 29.180658 23.419614 29.181641 23.427734 C 28.281937 23.244519 27.343132 23.136719 26.365234 23.136719 C 26.039627 23.136719 25.710212 23.145816 25.373047 23.166016 C 23.462073 23.276328 22.044458 23.897125 21.136719 24.824219 C 20.228639 25.75166 19.875265 26.939342 19.931641 28.001953 C 19.998411 29.252438 20.624371 30.363243 21.572266 31.099609 C 22.520161 31.835976 23.769781 32.224609 25.148438 32.224609 C 25.276619 32.224609 25.403649 32.221944 25.53125 32.214844 C 27.156277 32.124974 28.577075 31.503299 29.546875 30.371094 C 30.440887 29.327368 30.905076 27.893035 31.095703 26.208984 C 31.176903 26.261484 31.346489 26.280874 31.457031 26.347656 L 31.458984 26.347656 C 32.414939 26.923977 33.086849 27.683635 33.453125 28.533203 C 34.069782 29.976014 34.189589 32.441063 32.130859 34.498047 C 30.406781 36.22032 28.402916 36.972864 25.1875 36.998047 C 21.619905 36.968847 19.093236 35.849593 17.382812 33.675781 C 15.829099 31.700282 14.966664 28.813636 14.933594 24.990234 C 14.966654 21.187515 15.829301 18.300519 17.382812 16.326172 L 17.382812 16.324219 C 19.092201 14.149691 21.617465 13.031165 25.205078 13.001953 C 28.790756 13.031153 31.365844 14.154443 33.140625 16.337891 C 33.994022 17.386988 34.660906 18.725217 35.105469 20.335938 L 37.033203 19.804688 C 36.527706 17.973483 35.749962 16.375074 34.693359 15.076172 C 32.517649 12.399475 29.232442 11.030635 25.212891 11 L 25.205078 11 L 25.197266 11 z M 26.365234 25.136719 C 27.309206 25.136719 28.197048 25.224199 28.992188 25.404297 L 28.994141 25.404297 C 29.133358 25.435727 29.061771 25.446809 29.179688 25.474609 C 29.178687 25.491019 29.179687 25.646484 29.179688 25.646484 L 29.179688 25.648438 C 29.051064 27.255066 28.628044 28.369019 28.027344 29.070312 C 27.426644 29.771608 26.635848 30.149663 25.421875 30.216797 C 25.331475 30.221797 25.240255 30.224609 25.148438 30.224609 C 24.147092 30.224609 23.338683 29.940868 22.798828 29.521484 C 22.258973 29.102101 21.965917 28.575 21.929688 27.896484 C 21.900067 27.338096 22.067486 26.732215 22.566406 26.222656 C 23.065327 25.713098 23.942296 25.253091 25.490234 25.164062 L 25.492188 25.164062 C 25.789022 25.146272 26.078842 25.136719 26.365234 25.136719 z"/></svg>